#Comment line ignore any data following # character 
#Hierarchical Translation and Rotation (.htr) file 
[Header]	
#Header keywords are followed by a single value 
FileType HTR		#Single word string
DataType HTRS		#Translation followed by rotation and scale data
FileVersion 1		#integer
NumSegments 84		#integer
NumFrames 2		#integer
DataFrameRate 30		#integer, data frame rate in this file
EulerRotationOrder ZYX
CalibrationUnits mm
RotationUnits Degrees
GlobalAxisofGravity Y
BoneLengthAxis Y
ScaleFactor 1.00
[SegmentNames&Hierarchy]
#CHILD	PARENT
MASTER GLOBAL
root MASTER
chest root
L_mid_tent01 root
R_mid_tent01 root
spine01 root
Bip01_Neck chest
L_humerus chest
R_humerus chest
weapon_bone chest
Bip01_Head Bip01_Neck
eye_left_bone Bip01_Head
eye_right_bone Bip01_Head
L_forearm L_humerus
L_front_hand L_forearm
L_weapon_bone L_forearm
L_front_hand01_01 L_front_hand
L_front_hand02_01 L_front_hand
L_front_hand03_01 L_front_hand
L_front_hand01_02 L_front_hand01_01
L_front_hand02_02 L_front_hand02_01
L_front_hand03_02 L_front_hand03_01
R_forearm R_humerus
R_front_hand R_forearm
R_weapon_bone R_forearm
R_front_hand01_01 R_front_hand
R_front_hand02_01 R_front_hand
R_front_hand03_01 R_front_hand
R_front_hand01_02 R_front_hand01_01
R_front_hand02_02 R_front_hand02_01
R_front_hand03_02 R_front_hand03_01
null_rope01_connect L_mid_tent01
Rope1_Seg01 null_rope01_connect
Rope1_Seg02 Rope1_Seg01
Rope1_Seg03 Rope1_Seg02
Rope1_Seg04 Rope1_Seg03
Rope1_Seg05 Rope1_Seg04
Rope1_Seg06 Rope1_Seg05
Rope1_Seg07 Rope1_Seg06
Rope1_Seg09 Rope1_Seg07
L_mid_hand01 Rope1_Seg09
L_mid_hand02 Rope1_Seg09
L_mid_hand03 Rope1_Seg09
null_rope02_connect R_mid_tent01
Rope2_Seg01 null_rope02_connect
Rope2_Seg02 Rope2_Seg01
Rope2_Seg03 Rope2_Seg02
Rope2_Seg04 Rope2_Seg03
Rope2_Seg05 Rope2_Seg04
Rope2_Seg06 Rope2_Seg05
Rope2_Seg07 Rope2_Seg06
Rope2_Seg09 Rope2_Seg07
R_mid_hand01 Rope2_Seg09
R_mid_hand02 Rope2_Seg09
R_mid_hand03 Rope2_Seg09
spine02 spine01
spine03 spine02
pelvis spine03
null_rope03_connect pelvis
null_rope04_connect pelvis
Rope3_Seg01 null_rope03_connect
Rope3_Seg02 Rope3_Seg01
Rope3_Seg03 Rope3_Seg02
Rope3_Seg04 Rope3_Seg03
Rope3_Seg05 Rope3_Seg04
Rope3_Seg06 Rope3_Seg05
Rope3_Seg07 Rope3_Seg06
Rope3_Seg08 Rope3_Seg07
Rope3_Seg09 Rope3_Seg08
R_rear_hand01 Rope3_Seg09
R_rear_hand02 Rope3_Seg09
R_rear_hand03 Rope3_Seg09
Rope4_Seg01 null_rope04_connect
Rope4_Seg02 Rope4_Seg01
Rope4_Seg03 Rope4_Seg02
Rope4_Seg04 Rope4_Seg03
Rope4_Seg05 Rope4_Seg04
Rope4_Seg06 Rope4_Seg05
Rope4_Seg07 Rope4_Seg06
Rope4_Seg08 Rope4_Seg07
Rope4_Seg09 Rope4_Seg08
L_rear_hand01 Rope4_Seg09
L_rear_hand02 Rope4_Seg09
L_rear_hand03 Rope4_Seg09
[BasePosition]
#SegmentName Tx, Ty, Tz, Rx, Ry, Rz, BoneLength
MASTER 0.000000 0.000000 0.000000 -90.000000 0.000000 0.000000 10.000000 
root 0.000000 0.000000 0.000000 0.000000 0.000000 0.000000 10.000000 
chest 0.000000 0.000000 0.000000 0.000000 0.000000 0.000000 10.000000 
L_mid_tent01 0.000000 0.000000 0.000000 0.000000 0.000000 0.000000 10.000000 
R_mid_tent01 0.000000 0.000000 0.000000 0.000000 0.000000 0.000000 10.000000 
spine01 0.000000 0.000000 0.000000 0.000000 0.000000 0.000000 10.000000 
Bip01_Neck 0.000000 0.000000 0.000000 0.000000 0.000000 0.000000 10.000000 
L_humerus 0.000000 0.000000 0.000000 0.000000 0.000000 0.000000 10.000000 
R_humerus 0.000000 0.000000 0.000000 0.000000 0.000000 0.000000 10.000000 
weapon_bone 0.000000 0.000000 0.000000 0.000000 0.000000 0.000000 10.000000 
Bip01_Head 0.000000 0.000000 0.000000 0.000000 0.000000 0.000000 10.000000 
eye_left_bone 0.000000 0.000000 0.000000 0.000000 0.000000 0.000000 10.000000 
eye_right_bone 0.000000 0.000000 0.000000 0.000000 0.000000 0.000000 10.000000 
L_forearm 0.000000 0.000000 0.000000 0.000000 0.000000 0.000000 10.000000 
L_front_hand 0.000000 0.000000 0.000000 0.000000 0.000000 0.000000 10.000000 
L_weapon_bone 0.000000 0.000000 0.000000 0.000000 0.000000 0.000000 10.000000 
L_front_hand01_01 0.000000 0.000000 0.000000 0.000000 0.000000 0.000000 10.000000 
L_front_hand02_01 0.000000 0.000000 0.000000 0.000000 0.000000 0.000000 10.000000 
L_front_hand03_01 0.000000 0.000000 0.000000 0.000000 0.000000 0.000000 10.000000 
L_front_hand01_02 0.000000 0.000000 0.000000 0.000000 0.000000 0.000000 10.000000 
L_front_hand02_02 0.000000 0.000000 0.000000 0.000000 0.000000 0.000000 10.000000 
L_front_hand03_02 0.000000 0.000000 0.000000 0.000000 0.000000 0.000000 10.000000 
R_forearm 0.000000 0.000000 0.000000 0.000000 0.000000 0.000000 10.000000 
R_front_hand 0.000000 0.000000 0.000000 0.000000 0.000000 0.000000 10.000000 
R_weapon_bone 0.000000 0.000000 0.000000 0.000000 0.000000 0.000000 10.000000 
R_front_hand01_01 0.000000 0.000000 0.000000 0.000000 0.000000 0.000000 10.000000 
R_front_hand02_01 0.000000 0.000000 0.000000 0.000000 0.000000 0.000000 10.000000 
R_front_hand03_01 0.000000 0.000000 0.000000 0.000000 0.000000 0.000000 10.000000 
R_front_hand01_02 0.000000 0.000000 0.000000 0.000000 0.000000 0.000000 10.000000 
R_front_hand02_02 0.000000 0.000000 0.000000 0.000000 0.000000 0.000000 10.000000 
R_front_hand03_02 0.000000 0.000000 0.000000 0.000000 0.000000 0.000000 10.000000 
null_rope01_connect 0.000000 0.000000 0.000000 0.000000 0.000000 0.000000 10.000000 
Rope1_Seg01 0.000000 0.000000 0.000000 0.000000 0.000000 0.000000 10.000000 
Rope1_Seg02 0.000000 0.000000 0.000000 0.000000 0.000000 0.000000 10.000000 
Rope1_Seg03 0.000000 0.000000 0.000000 0.000000 0.000000 0.000000 10.000000 
Rope1_Seg04 0.000000 0.000000 0.000000 0.000000 0.000000 0.000000 10.000000 
Rope1_Seg05 0.000000 0.000000 0.000000 0.000000 0.000000 0.000000 10.000000 
Rope1_Seg06 0.000000 0.000000 0.000000 0.000000 0.000000 0.000000 10.000000 
Rope1_Seg07 0.000000 0.000000 0.000000 0.000000 0.000000 0.000000 10.000000 
Rope1_Seg09 0.000000 0.000000 0.000000 0.000000 0.000000 0.000000 10.000000 
L_mid_hand01 0.000000 0.000000 0.000000 0.000000 0.000000 0.000000 10.000000 
L_mid_hand02 0.000000 0.000000 0.000000 0.000000 0.000000 0.000000 10.000000 
L_mid_hand03 0.000000 0.000000 0.000000 0.000000 0.000000 0.000000 10.000000 
null_rope02_connect 0.000000 0.000000 0.000000 0.000000 0.000000 0.000000 10.000000 
Rope2_Seg01 0.000000 0.000000 0.000000 0.000000 0.000000 0.000000 10.000000 
Rope2_Seg02 0.000000 0.000000 0.000000 0.000000 0.000000 0.000000 10.000000 
Rope2_Seg03 0.000000 0.000000 0.000000 0.000000 0.000000 0.000000 10.000000 
Rope2_Seg04 0.000000 0.000000 0.000000 0.000000 0.000000 0.000000 10.000000 
Rope2_Seg05 0.000000 0.000000 0.000000 0.000000 0.000000 0.000000 10.000000 
Rope2_Seg06 0.000000 0.000000 0.000000 0.000000 0.000000 0.000000 10.000000 
Rope2_Seg07 0.000000 0.000000 0.000000 0.000000 0.000000 0.000000 10.000000 
Rope2_Seg09 0.000000 0.000000 0.000000 0.000000 0.000000 0.000000 10.000000 
R_mid_hand01 0.000000 0.000000 0.000000 0.000000 0.000000 0.000000 10.000000 
R_mid_hand02 0.000000 0.000000 0.000000 0.000000 0.000000 0.000000 10.000000 
R_mid_hand03 0.000000 0.000000 0.000000 0.000000 0.000000 0.000000 10.000000 
spine02 0.000000 0.000000 0.000000 0.000000 0.000000 0.000000 10.000000 
spine03 0.000000 0.000000 0.000000 0.000000 0.000000 0.000000 10.000000 
pelvis 0.000000 0.000000 0.000000 0.000000 0.000000 0.000000 10.000000 
null_rope03_connect 0.000000 0.000000 0.000000 0.000000 0.000000 0.000000 10.000000 
null_rope04_connect 0.000000 0.000000 0.000000 0.000000 0.000000 0.000000 10.000000 
Rope3_Seg01 0.000000 0.000000 0.000000 0.000000 0.000000 0.000000 10.000000 
Rope3_Seg02 0.000000 0.000000 0.000000 0.000000 0.000000 0.000000 10.000000 
Rope3_Seg03 0.000000 0.000000 0.000000 0.000000 0.000000 0.000000 10.000000 
Rope3_Seg04 0.000000 0.000000 0.000000 0.000000 0.000000 0.000000 10.000000 
Rope3_Seg05 0.000000 0.000000 0.000000 0.000000 0.000000 0.000000 10.000000 
Rope3_Seg06 0.000000 0.000000 0.000000 0.000000 0.000000 0.000000 10.000000 
Rope3_Seg07 0.000000 0.000000 0.000000 0.000000 0.000000 0.000000 10.000000 
Rope3_Seg08 0.000000 0.000000 0.000000 0.000000 0.000000 0.000000 10.000000 
Rope3_Seg09 0.000000 0.000000 0.000000 0.000000 0.000000 0.000000 10.000000 
R_rear_hand01 0.000000 0.000000 0.000000 0.000000 0.000000 0.000000 10.000000 
R_rear_hand02 0.000000 0.000000 0.000000 0.000000 0.000000 0.000000 10.000000 
R_rear_hand03 0.000000 0.000000 0.000000 0.000000 0.000000 0.000000 10.000000 
Rope4_Seg01 0.000000 0.000000 0.000000 0.000000 0.000000 0.000000 10.000000 
Rope4_Seg02 0.000000 0.000000 0.000000 0.000000 0.000000 0.000000 10.000000 
Rope4_Seg03 0.000000 0.000000 0.000000 0.000000 0.000000 0.000000 10.000000 
Rope4_Seg04 0.000000 0.000000 0.000000 0.000000 0.000000 0.000000 10.000000 
Rope4_Seg05 0.000000 0.000000 0.000000 0.000000 0.000000 0.000000 10.000000 
Rope4_Seg06 0.000000 0.000000 0.000000 0.000000 0.000000 0.000000 10.000000 
Rope4_Seg07 0.000000 0.000000 0.000000 0.000000 0.000000 0.000000 10.000000 
Rope4_Seg08 0.000000 0.000000 0.000000 0.000000 0.000000 0.000000 10.000000 
Rope4_Seg09 0.000000 0.000000 0.000000 0.000000 0.000000 0.000000 10.000000 
L_rear_hand01 0.000000 0.000000 0.000000 0.000000 0.000000 0.000000 10.000000 
L_rear_hand02 0.000000 0.000000 0.000000 0.000000 0.000000 0.000000 10.000000 
L_rear_hand03 0.000000 0.000000 0.000000 0.000000 0.000000 0.000000 10.000000 
#Beginning of Data. Separated by tabs
#Fr	Tx	Ty	Tz	Rx	Ry	Rz	SF
[MASTER]
21 0.000000 0.000000 0.000000 0.001660 0.001660 0.001660 0.000000
22 0.000000 0.000000 0.000000 0.001660 0.001660 0.001660 0.000000
[root]
21 -16.502304 1.856777 1453.694702 -81.204895 -25.485428 -95.415993 1453.789673
22 -16.502304 4.411582 1451.865723 -83.914444 -22.705078 -94.224464 1451.966187
[chest]
21 -84.512650 -34.090519 0.000000 8.689913 -0.612696 176.221222 91.129311
22 -84.512650 -34.090519 0.000000 6.296590 -0.429173 -178.801804 91.129311
[L_mid_tent01]
21 27.299147 22.178909 -249.918625 -7.257028 35.921219 56.539154 252.381592
22 27.299141 22.178947 -249.918625 -1.379268 36.511192 66.497536 252.381592
[R_mid_tent01]
21 23.228794 24.509907 226.238495 -172.576950 -24.698179 37.276188 228.744751
22 23.228794 24.509907 226.238495 -170.940903 -23.482519 34.510536 228.744751
[spine01]
21 -0.361383 -0.195265 0.000000 0.001935 0.001330 21.002249 0.410763
22 -0.361383 -0.195265 0.000000 0.001937 0.001326 21.212194 0.410763
[Bip01_Neck]
21 165.484543 71.581718 0.000119 176.643677 -1.657967 43.431911 180.302734
22 165.484543 71.581718 0.000119 176.643677 -1.657967 43.431911 180.302734
[L_humerus]
21 -13.983130 -135.272980 -120.471481 77.254265 85.934082 168.032379 181.680161
22 -13.983130 -135.272980 -120.471481 29.252024 84.359238 119.885353 181.680161
[R_humerus]
21 -13.983309 -135.273102 125.287651 130.639847 -86.831703 -35.451057 184.909012
22 -13.983309 -135.273102 125.287651 63.363796 -85.749321 31.915993 184.909012
[weapon_bone]
21 235.964890 -300.705902 0.000000 0.000000 -89.951546 -128.212341 382.234833
22 235.964890 -300.705902 0.000000 0.000000 -89.951546 -128.212341 382.234833
[Bip01_Head]
21 213.444168 185.715561 11.776939 4.962490 2.797846 -43.898743 283.173767
22 213.444153 185.715561 11.776940 4.962490 2.797846 -43.898743 283.173767
[eye_left_bone]
21 -24.626970 125.451866 -64.772606 0.000000 -90.000000 -99.840431 143.318359
22 -24.626970 125.451866 -64.772606 0.000000 -90.000000 -99.840431 143.318359
[eye_right_bone]
21 -24.626970 125.451866 64.327362 0.000000 -89.965736 80.156380 143.117676
22 -24.626970 125.451866 64.327362 0.000000 -89.965736 80.156380 143.117676
[L_forearm]
21 322.776093 0.000000 -0.000119 0.000618 0.002264 -59.473381 322.776093
22 322.776093 0.000000 -0.000119 0.000546 0.002283 -63.100777 322.776093
[L_front_hand]
21 241.149185 -0.042021 -3.300071 31.508821 -1.833293 -27.424950 241.171753
22 241.149185 -0.042021 -3.300071 31.508821 -1.833293 -27.424948 241.171753
[L_weapon_bone]
21 156.183838 0.000000 0.000000 0.000014 0.000007 0.000001 156.183838
22 156.183838 0.000000 0.000000 0.000014 0.000007 0.000001 156.183838
[L_front_hand01_01]
21 86.095154 20.947098 -0.655860 -0.366594 -0.477154 75.385574 88.609184
22 86.095154 20.947098 -0.655860 -0.366594 -0.477154 75.385574 88.609184
[L_front_hand02_01]
21 86.935165 -11.437475 24.513514 154.399796 -59.883835 -61.369587 91.046425
22 86.935165 -11.437475 24.513514 154.399796 -59.883835 -61.369587 91.046425
[L_front_hand03_01]
21 86.637497 -14.123976 -20.424902 -153.913849 58.118122 -62.702866 90.126129
22 86.637497 -14.123976 -20.424902 -153.913849 58.118130 -62.702866 90.126129
[L_front_hand01_02]
21 71.020905 -0.000179 0.000030 0.000334 -0.002323 -106.379684 71.020905
22 71.020905 -0.000179 0.000030 0.000334 -0.002323 -106.379684 71.020905
[L_front_hand02_02]
21 71.020927 -0.000119 0.000060 0.000334 -0.002323 -106.379684 71.020927
22 71.020927 -0.000119 0.000060 0.000334 -0.002323 -106.379684 71.020927
[L_front_hand03_02]
21 71.020905 -0.000060 0.000060 0.000334 -0.002323 -106.379684 71.020905
22 71.020905 -0.000060 0.000060 0.000334 -0.002323 -106.379684 71.020905
[R_forearm]
21 322.776428 -0.000060 0.000030 0.165275 -0.132193 -51.948635 322.776428
22 322.776428 -0.000060 0.000030 0.184451 -0.108685 -59.924141 322.776428
[R_front_hand]
21 238.847015 -0.006795 2.210259 -8.879457 -10.642941 -26.315098 238.857239
22 238.847015 -0.006795 2.210259 -8.879457 -10.642941 -26.315098 238.857239
[R_weapon_bone]
21 155.664093 0.002503 -0.000030 0.003487 0.001180 -90.988930 155.664078
22 155.664093 0.002503 -0.000030 0.003487 0.001180 -90.988930 155.664078
[R_front_hand01_01]
21 87.624611 14.231146 22.918642 -154.633499 -59.950619 61.746044 91.683487
22 87.624611 14.231146 22.918642 -154.633499 -59.950619 61.746044 91.683487
[R_front_hand02_01]
21 89.356956 14.367283 -19.491137 154.602661 58.302849 63.744389 92.579636
22 89.356956 14.367283 -19.491137 154.602661 58.302849 63.744389 92.579636
[R_front_hand03_01]
21 87.286232 -22.307278 -0.143439 0.162155 -0.423168 -75.767921 90.091743
22 87.286232 -22.307278 -0.143439 0.162155 -0.423168 -75.767906 90.091743
[R_front_hand01_02]
21 71.020905 0.000060 0.000119 0.002323 -0.000334 106.381714 71.020905
22 71.020905 0.000060 0.000119 0.002323 -0.000334 106.381714 71.020905
[R_front_hand02_02]
21 71.020844 -0.000030 -0.000119 0.002323 -0.000334 106.381714 71.020836
22 71.020844 -0.000030 -0.000119 0.002323 -0.000334 106.381714 71.020836
[R_front_hand03_02]
21 71.020905 0.000000 0.000030 0.002323 -0.000334 106.381714 71.020905
22 71.020905 0.000000 0.000030 0.002323 -0.000334 106.381714 71.020905
[null_rope01_connect]
21 328.732483 0.000000 -0.000238 -122.439240 -57.057709 177.151489 328.732483
22 328.732483 0.000000 -0.000238 -128.258423 -55.854446 172.496826 328.732483
[Rope1_Seg01]
21 -0.000008 -0.000015 0.000031 -21.384520 19.962301 -104.687576 0.000035
22 -0.000006 -0.000012 0.000024 4.330044 9.373872 -103.697945 0.000028
[Rope1_Seg02]
21 139.999863 -0.000179 0.000000 26.764914 -12.099085 -2.702924 139.999863
22 139.999863 -0.000179 0.000000 8.950866 -8.086602 1.834539 139.999863
[Rope1_Seg03]
21 139.999924 0.000060 -0.000060 11.405144 -13.341706 3.233099 139.999924
22 139.999924 0.000060 -0.000060 5.372903 -8.390763 3.365980 139.999924
[Rope1_Seg04]
21 139.999924 -0.000060 -0.000119 7.920148 -18.245237 5.897146 139.999924
22 139.999924 -0.000060 -0.000119 6.333844 -14.318348 4.948575 139.999924
[Rope1_Seg05]
21 139.999832 0.000119 -0.000060 -0.349906 -3.825741 4.740475 139.999832
22 139.999832 0.000119 -0.000060 0.525664 -5.500643 4.562667 139.999832
[Rope1_Seg06]
21 139.999954 0.000119 -0.000060 -5.813983 10.297616 1.292225 139.999954
22 139.999954 0.000119 -0.000060 -5.574566 9.941548 0.296765 139.999954
[Rope1_Seg07]
21 139.999985 0.000060 0.000000 -6.429616 9.089254 1.721313 139.999985
22 139.999985 0.000060 0.000000 -6.961375 9.833108 0.471334 139.999985
[Rope1_Seg09]
21 121.602913 0.000119 -0.000089 -89.793175 -1.359789 0.847147 121.602913
22 121.602913 0.000119 -0.000089 -89.793175 -1.359789 0.847147 121.602913
[L_mid_hand01]
21 103.859421 1.038730 8.195221 112.678780 -49.980732 -18.276028 104.187431
22 103.859421 1.038730 8.195221 114.394852 -53.111439 -20.468830 104.187431
[L_mid_hand02]
21 105.572853 -4.139662 -10.864139 -152.571289 36.560638 -48.342640 106.211075
22 105.572853 -4.139662 -10.864139 -154.909470 38.072205 -52.197872 106.211075
[L_mid_hand03]
21 104.641464 17.579376 -3.913581 -11.926215 14.597148 53.941067 106.179977
22 104.641464 17.579376 -3.913581 -11.031654 15.280054 57.403896 106.179977
[null_rope02_connect]
21 328.732849 0.000179 -0.000119 -132.993042 60.887680 -31.725246 328.732849
22 328.732849 0.000179 -0.000119 -134.720016 62.817375 -32.514809 328.732849
[Rope2_Seg01]
21 0.000095 0.000153 0.000061 50.142433 -20.987167 -61.207539 0.000190
22 0.000095 0.000153 0.000064 47.735004 -17.531460 -58.095287 0.000191
[Rope2_Seg02]
21 139.999741 -0.000060 -0.000119 7.050151 -1.020732 -6.600754 139.999756
22 139.999741 -0.000060 -0.000119 9.566584 -2.277400 -7.346623 139.999756
[Rope2_Seg03]
21 140.000107 0.000030 0.000000 4.554910 -0.098899 -4.319338 140.000107
22 140.000107 0.000030 0.000000 5.601260 -0.608881 -4.535305 140.000107
[Rope2_Seg04]
21 139.999802 0.000000 -0.000060 6.090203 -2.608227 -4.611670 139.999802
22 139.999802 0.000000 -0.000060 7.353063 -4.465975 -4.591422 139.999802
[Rope2_Seg05]
21 139.999985 -0.000060 0.000119 5.645653 -5.279934 -3.545759 139.999985
22 139.999985 -0.000060 0.000119 5.734197 -7.563338 -2.759920 139.999985
[Rope2_Seg06]
21 139.999893 -0.000030 -0.000119 2.547958 -2.905113 -1.676220 139.999893
22 139.999893 -0.000030 -0.000119 2.282314 -3.889399 -1.140007 139.999893
[Rope2_Seg07]
21 139.999893 0.000060 -0.000060 1.416685 -1.737031 -0.999259 139.999893
22 139.999893 0.000060 -0.000060 1.207092 -2.296391 -0.660695 139.999893
[Rope2_Seg09]
21 121.338966 0.000089 -0.000060 33.793236 -1.359788 -0.847141 121.338966
22 121.338966 0.000089 -0.000060 33.793236 -1.359788 -0.847141 121.338966
[R_mid_hand01]
21 104.680779 11.144459 -10.335981 -37.204075 31.906813 37.576267 105.778534
22 104.680779 11.144459 -10.335981 -36.871494 32.306065 38.202835 105.778534
[R_mid_hand02]
21 104.070427 2.443552 8.231699 70.367462 -42.427391 14.067811 104.424065
22 104.070427 2.443552 8.231699 70.159821 -43.055164 14.371493 104.424065
[R_mid_hand03]
21 106.028137 -11.221827 -5.996406 -169.893616 12.226658 -47.211018 106.788818
22 106.028137 -11.221827 -5.996406 -170.040359 12.343988 -47.884888 106.788818
[spine02]
21 129.756927 0.001550 0.000119 0.074962 -4.140159 -8.739406 129.756927
22 129.756927 0.001550 0.000119 0.131258 -4.115129 -9.598033 129.756927
[spine03]
21 78.614029 0.082367 -4.898990 1.733303 4.066862 13.880671 78.766571
22 78.614037 0.082220 -4.898993 1.765342 4.004764 14.414397 78.766579
[pelvis]
21 169.435242 0.051022 0.000000 -0.032766 -0.124774 8.828593 169.435257
22 169.435242 0.051022 0.000000 -0.037907 -0.141497 9.910827 169.435257
[null_rope03_connect]
21 -1.257226 -2.466202 137.391083 -9.733603 -81.142921 90.676025 137.418976
22 -1.257226 -2.466202 137.391083 -15.018538 -83.290047 92.034126 137.418976
[null_rope04_connect]
21 -1.259640 -2.480268 -137.844437 -9.733603 -81.142921 90.676025 137.872513
22 -1.259640 -2.480268 -137.844437 -15.018538 -83.290047 92.034126 137.872513
[Rope3_Seg01]
21 -0.000031 0.000000 -0.000122 -131.271271 6.696451 -83.356255 0.000126
22 -0.000030 0.000000 -0.000128 -132.251022 13.758176 -83.369110 0.000132
[Rope3_Seg02]
21 139.999924 -0.000119 0.000060 0.359694 1.579807 -3.099965 139.999924
22 139.999924 -0.000119 0.000060 0.537993 2.116976 -3.649493 139.999924
[Rope3_Seg03]
21 139.999924 -0.000119 0.000119 0.268903 1.694928 -2.670524 139.999924
22 139.999924 -0.000119 0.000119 0.372811 1.827563 -3.099077 139.999924
[Rope3_Seg04]
21 139.999924 0.000119 0.000000 0.159374 2.723382 -3.566935 139.999924
22 139.999924 0.000119 0.000000 0.257564 2.992704 -4.796926 139.999924
[Rope3_Seg05]
21 139.999924 -0.000238 0.000060 0.031554 -1.398407 1.198238 139.999924
22 139.999924 -0.000238 0.000060 0.081988 -0.607179 0.708472 139.999924
[Rope3_Seg06]
21 139.999893 -0.000119 -0.000060 -0.168713 -4.412723 4.676703 139.999893
22 139.999893 -0.000119 -0.000060 -0.239131 -3.582267 5.320370 139.999893
[Rope3_Seg07]
21 139.999771 0.000060 -0.000119 -0.398508 -5.061067 5.461969 139.999771
22 139.999771 0.000060 -0.000119 -0.582856 -4.083909 6.102535 139.999771
[Rope3_Seg08]
21 139.999985 -0.000060 0.000000 0.127755 -2.276628 2.368743 139.999985
22 139.999985 -0.000060 0.000000 0.014845 -1.804403 2.618248 139.999985
[Rope3_Seg09]
21 90.185997 -0.000179 -0.000060 89.793228 -1.359877 -0.847183 90.185997
22 90.185997 -0.000179 -0.000060 89.793228 -1.359877 -0.847183 90.185997
[R_rear_hand01]
21 103.366196 -6.073594 -10.757982 -164.972809 19.789427 -40.983841 104.101845
22 103.366196 -6.073594 -10.757982 -165.575058 20.224255 -42.745789 104.101845
[R_rear_hand02]
21 100.509819 12.039542 -7.992327 -30.544968 25.097786 38.729183 101.543350
22 100.509819 12.039542 -7.992327 -29.842968 25.960022 40.362484 101.543350
[R_rear_hand03]
21 101.539970 5.215704 5.435467 82.376854 -41.657902 8.948386 101.819031
22 101.539970 5.215704 5.435467 82.169113 -43.351929 9.256878 101.819031
[Rope4_Seg01]
21 -0.000031 0.000000 -0.000122 48.569527 4.595159 -107.616455 0.000126
22 -0.000030 0.000000 -0.000128 47.714920 9.142201 -111.038071 0.000132
[Rope4_Seg02]
21 139.999985 0.000060 0.000119 -0.069277 4.443628 -0.807779 139.999985
22 139.999985 0.000060 0.000119 0.034375 5.334954 1.127170 139.999985
[Rope4_Seg03]
21 139.999924 0.000000 -0.000238 0.101543 3.999263 -0.682662 139.999924
22 139.999924 0.000000 -0.000238 0.145367 4.932924 1.037593 139.999924
[Rope4_Seg04]
21 139.999985 0.000000 0.000119 0.594470 9.327934 -0.580029 139.999985
22 139.999985 0.000000 0.000119 0.662073 10.089511 1.912135 139.999985
[Rope4_Seg05]
21 139.999802 -0.000060 -0.000119 0.278261 1.219558 -0.499864 139.999802
22 139.999802 -0.000060 -0.000119 0.251349 2.542775 0.551400 139.999802
[Rope4_Seg06]
21 139.999924 0.000000 0.000060 -0.390273 -10.658014 -0.324540 139.999924
22 139.999924 0.000000 0.000060 -0.354462 -9.673927 -1.422650 139.999924
[Rope4_Seg07]
21 139.999802 0.000000 0.000000 0.672128 -15.284524 -0.348006 139.999802
22 139.999802 0.000000 0.000000 0.322414 -13.303746 -2.152218 139.999802
[Rope4_Seg08]
21 139.999924 0.000000 0.000119 -0.730902 -6.848523 -0.177563 139.999924
22 139.999924 0.000000 0.000119 -1.183259 -5.677868 -0.870648 139.999924
[Rope4_Seg09]
21 90.185791 0.000060 0.000060 -135.617828 2.228885 0.850567 90.185791
22 90.185791 0.000060 0.000060 -135.617828 2.228885 0.850567 90.185791
[L_rear_hand01]
21 101.696655 -8.392275 -7.654577 -24.658646 -30.887184 128.783096 102.329041
22 101.696655 -8.392275 -7.654577 -22.991795 -32.088032 125.593971 102.329041
[L_rear_hand02]
21 102.726799 -1.568258 5.773216 80.302322 53.966492 168.267426 102.900848
22 102.726799 -1.568258 5.773216 79.542931 56.888847 167.348526 102.900848
[L_rear_hand03]
21 104.552910 9.721220 -10.420293 -169.691238 -22.530384 -125.995583 105.519653
22 104.552910 9.721220 -10.420293 -170.919907 -23.031248 -122.815849 105.519653
